<svg width="70" height="14" viewBox="0 0 70 14" fill="none" xmlns="http://www.w3.org/2000/svg">
<path d="M0 14V12.8333H14V14H0ZM3.18889 10.7917V9.625H10.8306V10.7917H3.18889ZM0 7.58333V6.41667H14V7.58333H0ZM3.18889 4.375V3.20833H10.8306V4.375H3.18889ZM0 1.16667V0H14V1.16667H0Z" fill="black"/>
<path d="M28 14V12.8333H42V14H28ZM32.8417 10.7917V9.625H42V10.7917H32.8417ZM28 7.58333V6.41667H42V7.58333H28ZM32.8417 4.375V3.20833H42V4.375H32.8417ZM28 1.16667V0H42V1.16667H28Z" fill="black"/>
<path d="M56 14V12.8333H70V14H56ZM56 10.7917V9.625H70V10.7917H56ZM56 7.58333V6.41667H70V7.58333H56ZM56 4.375V3.20833H70V4.375H56ZM56 1.16667V0H70V1.16667H56Z" fill="black"/>
</svg>
