<svg width="115" height="41" viewBox="0 0 115 41" fill="none" xmlns="http://www.w3.org/2000/svg">
<path d="M15.7929 9.09528V9.09632C15.776 9.1254 12.2955 15.1293 7.95067 22.4596C3.59532 29.8077 0 35.6906 0 35.6906L12.3315 35.6366L12.3323 35.6364L12.3297 35.646C18.3172 35.53 23.7182 31.5935 25.3119 25.6454C25.8102 23.786 25.8853 21.9143 25.5964 20.1255C24.8043 14.8583 20.9149 10.5745 15.7929 9.09528Z" fill="black"/>
<path d="M22.6076 5.30933V5.31037C22.5907 5.33945 19.1102 11.3433 14.7654 18.6736C10.41 26.0218 6.8147 31.9047 6.8147 31.9047L19.1461 31.8506L19.147 31.8505L19.1444 31.86C25.1319 31.7441 30.5329 27.8075 32.1266 21.8594C32.6249 20.0001 32.7 18.1284 32.4111 16.3396C31.619 11.0724 27.7296 6.78859 22.6076 5.30933Z" fill="#10F2C5"/>
<path d="M41.491 14.4475V11.2696H56.4634V14.4475H50.8821V29.5H47.0722V14.4475H41.491ZM74.8495 20.3848C74.8495 22.3728 74.4727 24.0641 73.719 25.4587C72.9713 26.8533 71.9506 27.9185 70.6569 28.6544C69.3691 29.3843 67.9211 29.7492 66.3129 29.7492C64.6928 29.7492 63.2389 29.3813 61.9512 28.6455C60.6634 27.9096 59.6457 26.8444 58.8979 25.4498C58.1502 24.0552 57.7764 22.3669 57.7764 20.3848C57.7764 18.3968 58.1502 16.7055 58.8979 15.3109C59.6457 13.9164 60.6634 12.8541 61.9512 12.1242C63.2389 11.3883 64.6928 11.0204 66.3129 11.0204C67.9211 11.0204 69.3691 11.3883 70.6569 12.1242C71.9506 12.8541 72.9713 13.9164 73.719 15.3109C74.4727 16.7055 74.8495 18.3968 74.8495 20.3848ZM70.9417 20.3848C70.9417 19.0971 70.7489 18.0111 70.3631 17.1269C69.9833 16.2426 69.4463 15.5721 68.752 15.1151C68.0576 14.6582 67.2446 14.4297 66.3129 14.4297C65.3812 14.4297 64.5682 14.6582 63.8739 15.1151C63.1796 15.5721 62.6396 16.2426 62.2538 17.1269C61.874 18.0111 61.6841 19.0971 61.6841 20.3848C61.6841 21.6726 61.874 22.7586 62.2538 23.6428C62.6396 24.527 63.1796 25.1976 63.8739 25.6545C64.5682 26.1115 65.3812 26.34 66.3129 26.34C67.2446 26.34 68.0576 26.1115 68.752 25.6545C69.4463 25.1976 69.9833 24.527 70.3631 23.6428C70.7489 22.7586 70.9417 21.6726 70.9417 20.3848ZM84.1672 29.5H77.7047V11.2696H84.2206C86.0543 11.2696 87.6329 11.6346 88.9562 12.3645C90.2796 13.0885 91.2973 14.13 92.0095 15.489C92.7275 16.8479 93.0865 18.474 93.0865 20.367C93.0865 22.266 92.7275 23.898 92.0095 25.2629C91.2973 26.6278 90.2737 27.6752 88.9384 28.4051C87.6091 29.135 86.0187 29.5 84.1672 29.5ZM81.559 26.1975H84.007C85.1464 26.1975 86.1048 25.9958 86.8822 25.5922C87.6655 25.1828 88.253 24.5507 88.6447 23.6962C89.0423 22.8357 89.2411 21.726 89.2411 20.367C89.2411 19.0199 89.0423 17.9191 88.6447 17.0645C88.253 16.21 87.6685 15.581 86.8911 15.1774C86.1137 14.7739 85.1553 14.5721 84.0159 14.5721H81.559V26.1975ZM112.694 20.3848C112.694 22.3728 112.318 24.0641 111.564 25.4587C110.816 26.8533 109.795 27.9185 108.502 28.6544C107.214 29.3843 105.766 29.7492 104.158 29.7492C102.538 29.7492 101.084 29.3813 99.7961 28.6455C98.5083 27.9096 97.4906 26.8444 96.7428 25.4498C95.9951 24.0552 95.6212 22.3669 95.6212 20.3848C95.6212 18.3968 95.9951 16.7055 96.7428 15.3109C97.4906 13.9164 98.5083 12.8541 99.7961 12.1242C101.084 11.3883 102.538 11.0204 104.158 11.0204C105.766 11.0204 107.214 11.3883 108.502 12.1242C109.795 12.8541 110.816 13.9164 111.564 15.3109C112.318 16.7055 112.694 18.3968 112.694 20.3848ZM108.787 20.3848C108.787 19.0971 108.594 18.0111 108.208 17.1269C107.828 16.2426 107.291 15.5721 106.597 15.1151C105.903 14.6582 105.09 14.4297 104.158 14.4297C103.226 14.4297 102.413 14.6582 101.719 15.1151C101.024 15.5721 100.484 16.2426 100.099 17.1269C99.7189 18.0111 99.529 19.0971 99.529 20.3848C99.529 21.6726 99.7189 22.7586 100.099 23.6428C100.484 24.527 101.024 25.1976 101.719 25.6545C102.413 26.1115 103.226 26.34 104.158 26.34C105.09 26.34 105.903 26.1115 106.597 25.6545C107.291 25.1976 107.828 24.527 108.208 23.6428C108.594 22.7586 108.787 21.6726 108.787 20.3848Z" fill="black"/>
</svg>
